<svg width="1000" height="1000" viewBox="0 0 1000 1000" fill="none" xmlns="http://www.w3.org/2000/svg"><g clip-path="url(#clip0_5_46)"><mask id="path-1-inside-1_5_46" fill="#fff"><path fill-rule="evenodd" clip-rule="evenodd" d="M406.25 50c0-27.6142 22.386-50 50-50h87.5c27.614 0 50 22.3857 50 50v48.0536c0 22.8144 15.584 42.4044 36.967 50.3584 8.571 3.188 16.995 6.68 25.257 10.464 20.736 9.497 45.598 6.659 61.724-9.468l34.054-34.053c19.526-19.5259 51.184-19.5259 70.71 0l61.872 61.872c19.526 19.526 19.526 51.185 0 70.711l-33.939 33.939c-16.143 16.143-18.969 41.035-9.44 61.781 3.849 8.38 7.398 16.926 10.633 25.625 7.954 21.383 27.544 36.967 50.358 36.967H950c27.614 0 50 22.386 50 50v87.5c0 27.614-22.386 50-50 50h-48.054c-22.814 0-42.404 15.584-50.357 36.967-3.212 8.635-6.733 17.12-10.55 25.441-9.512 20.741-6.68 45.618 9.454 61.753l33.841 33.84c19.526 19.527 19.526 51.185 0 70.711l-61.872 61.872c-19.526 19.526-51.184 19.526-70.711 0l-33.84-33.841c-16.135-16.134-41.012-18.966-61.753-9.454-8.321 3.817-16.806 7.338-25.441 10.549-21.383 7.954-36.967 27.544-36.967 50.358V950c0 27.614-22.386 50-50 50h-87.5c-27.614 0-50-22.386-50-50v-48.054c0-22.814-15.584-42.404-36.967-50.358-8.699-3.235-17.245-6.784-25.625-10.633-20.746-9.529-45.638-6.703-61.781 9.44l-33.939 33.939c-19.526 19.526-51.185 19.526-70.711 0l-61.872-61.872c-19.5258-19.526-19.5258-51.184 0-70.711l34.053-34.053c16.127-16.126 18.965-40.988 9.468-61.724-3.784-8.262-7.276-16.686-10.464-25.257-7.954-21.383-27.544-36.967-50.3583-36.967H50c-27.6142 0-50-22.386-50-50v-87.5c0-27.614 22.3857-50 50-50h48.0537c22.8143 0 42.4043-15.584 50.3583-36.967 3.211-8.635 6.732-17.12 10.549-25.441 9.512-20.741 6.68-45.618-9.454-61.753l-34.152-34.151c-19.5259-19.526-19.5259-51.185 0-70.711l61.872-61.872c19.526-19.5258 51.185-19.5258 70.711 0l34.151 34.152c16.135 16.135 41.012 18.966 61.753 9.454 8.321-3.817 16.806-7.338 25.441-10.549 21.383-7.954 36.967-27.544 36.967-50.3583V50Z"/></mask><path d="m343.842 158.961-20.844-45.448 20.844 45.448Zm-228.487 88.977 35.356-35.355-35.356 35.355Zm43.606 95.904-45.448-20.844 45.448 20.844Zm-9.454-61.753 35.355-35.355-35.355 35.355Zm-1.095 87.194-46.864-17.43 46.864 17.43Zm.996 348.415 35.356 35.356-35.356-35.356Zm9.468-61.724-45.459 20.82 45.459-20.82Zm-43.521 95.777-35.3549-35.355 35.3549 35.355Zm132.583 132.583-35.355-35.355 35.355 35.355Zm95.72-43.379 20.869-45.437-20.869 45.437Zm-61.781 9.44-35.356-35.355 35.356 35.355Zm348.84 1.193-17.431-46.863 17.431 46.863Zm25.441-10.549-20.844-45.448 20.844 45.448Zm195.431-210.322 46.863 17.43-46.863-17.43Zm-.001-261.434 46.864-17.43-46.864 17.43Zm-1.193-87.406 35.355 35.355-35.355-35.355Zm-9.44 61.781 45.437-20.869-45.437 20.869Zm43.379-166.431-35.355 35.356 35.355-35.356Zm0 70.711 35.355 35.355-35.355-35.355ZM751.752 115.355 716.396 80l35.356 35.355Zm-95.778 43.521-20.819 45.459 20.819-45.459Zm61.724-9.468 35.356 35.356-35.356-35.356Zm-86.981-.996 17.43-46.864-17.43 46.864ZM543.75-50h-87.5V50h87.5V-50Zm100 148.0536V50h-100v48.0536h100Zm-30.464 97.2214c7.421 2.76 14.714 5.784 21.869 9.06l41.639-90.918c-9.37-4.291-18.924-8.253-28.647-11.869l-34.861 93.727ZM716.396 80l-34.053 34.053 70.711 70.711 34.053-34.053L716.396 80Zm203.293 61.872L857.818 80l-70.711 70.711 61.872 61.872 70.71-70.711Zm-33.939 175.36 33.939-33.939-70.71-70.71-33.939 33.938 70.71 70.711Zm-90.232 47.295c3.333 7.256 6.406 14.656 9.207 22.186l93.727-34.86c-3.67-9.868-7.696-19.561-12.06-29.064l-90.874 41.738ZM950 356.25h-48.054v100H950v-100Zm100 187.5v-87.5H950v87.5h100Zm-148.054 100H950v-100h-48.054v100Zm-97.221-30.463c-2.78 7.475-5.829 14.821-9.134 22.027l90.896 41.688c4.328-9.436 8.322-19.06 11.965-28.855l-93.727-34.86Zm114.964 103.109-33.84-33.84-70.711 70.71 33.841 33.841 70.71-70.711Zm-61.872 203.293 61.872-61.871-70.71-70.711-61.872 61.872 70.71 70.71Zm-175.262-33.84 33.841 33.84 70.711-70.71-33.841-33.841-70.711 70.711Zm-47.241-90.258c-7.206 3.305-14.552 6.354-22.028 9.134l34.861 93.727c9.795-3.643 19.419-7.637 28.855-11.965l-41.688-90.896ZM643.75 950v-48.054h-100V950h100Zm-187.5 100h87.5V950h-87.5v100Zm-100-148.054V950h100v-48.054h-100Zm30.463-97.221c-7.53-2.801-14.93-5.874-22.186-9.207l-41.738 90.874c9.503 4.364 19.196 8.39 29.064 12.06l34.86-93.727Zm-103.42 114.964 33.939-33.939-70.711-70.71-33.938 33.939 70.71 70.71ZM80 857.818l61.872 61.871 70.711-70.71-61.872-61.872L80 857.818Zm34.053-175.475-34.0529 34.053 70.7109 70.711 34.053-34.053-70.711-70.711Zm90.282-47.188c-3.276-7.155-6.3-14.448-9.06-21.868l-93.727 34.86c3.616 9.723 7.578 19.277 11.869 28.647l90.918-41.639ZM50 643.75h48.0537v-100H50v100Zm-100-187.5v87.5H50v-87.5H-50Zm148.0537-100H50v100h48.0537v-100Zm97.2213 30.463c2.78-7.475 5.829-14.821 9.133-22.027l-90.895-41.688c-4.328 9.436-8.322 19.06-11.965 28.855l93.727 34.86ZM80 283.293l34.151 34.151 70.711-70.71-34.151-34.151L80 283.293ZM141.872 80 80 141.872l70.711 70.711 61.872-61.872L141.872 80Zm175.572 34.151L283.293 80l-70.711 70.711 34.152 34.151 70.71-70.711Zm47.242 90.258c7.206-3.305 14.552-6.354 22.027-9.134l-34.86-93.727c-9.795 3.643-19.419 7.637-28.855 11.965l41.688 90.896ZM356.25 50v48.0537h100V50h-100Zm30.463 145.275c38.078-14.162 69.537-50.595 69.537-97.2213h-100c0 .0019 0-.0033.001-.0137s.002-.0212.004-.0309c.004-.0224.005-.0188-.007.0166-.024.0692-.129.3355-.438.7471-.676.9-2.01 2.0512-3.957 2.7752l34.86 93.727Zm-139.979-10.413c32.974 32.974 80.999 36.495 117.952 19.547l-41.688-90.896c-1.881.862-3.63.991-4.739.834-.507-.072-.768-.186-.833-.217-.034-.016-.035-.02-.016-.007.008.006.016.013.024.019.008.007.012.011.01.009l-70.71 70.711Zm-34.151-34.151c.012-.013.023-.023.03-.029.007-.007.012-.01.014-.012s.003-.003.001-.002c-.001.001-.004.003-.007.006-.009.005-.019.011-.031.018-.012.006-.023.011-.033.015-.019.008-.027.009-.02.007.003 0 .009-.001.017-.002.009-.001.018-.001.029-.001.01 0 .019 0 .028.001.008.001.014.002.017.002.007.002-.001.001-.02-.007-.01-.004-.021-.009-.033-.015-.012-.007-.022-.013-.031-.018-.003-.003-.006-.005-.007-.006-.002-.001-.001 0 .001.002.002.001.007.005.014.012.007.006.018.016.03.029L283.293 80c-39.052-39.0524-102.369-39.0524-141.421 0l70.711 70.711Zm-61.872 61.872c-.013-.013-.023-.024-.029-.031-.007-.007-.011-.011-.012-.014-.002-.002-.003-.003-.002-.001.001.001.003.004.006.008.005.008.011.018.018.03.006.012.011.023.015.033.008.019.009.027.007.02 0-.003-.001-.009-.002-.017-.001-.009-.001-.018-.001-.028 0-.011 0-.02.001-.029.001-.008.002-.014.002-.017.002-.007.001.001-.007.02-.004.01-.009.021-.015.033-.007.012-.013.022-.018.031-.003.003-.005.006-.006.007-.001.002 0 .001.002-.001.001-.002.005-.007.012-.014.006-.007.016-.017.029-.03L80 141.872c-39.0524 39.052-39.0524 102.369 0 141.421l70.711-70.71Zm53.697 152.103c16.949-36.953 13.428-84.978-19.546-117.952l-70.711 70.71c.002.002-.002-.002-.009-.01-.006-.008-.013-.016-.019-.024-.013-.019-.009-.018.007.016.031.065.145.326.217.833.157 1.109.028 2.858-.834 4.739l90.895 41.688ZM98.0537 456.25c46.6263 0 83.0593-31.459 97.2213-69.537l-93.727-34.86c-.724 1.947-1.8752 3.281-2.7752 3.957-.4116.309-.6779.414-.7471.438-.0354.012-.039.011-.0166.007.0097-.002.0205-.003.0309-.004s.0156-.001.0137-.001v100ZM50 456.25c0-.018.0005-.032.0009-.042.0005-.009.0011-.015.0014-.018l.0002-.002c-.0003.001-.0008.005-.0017.009-.002.01-.0049.021-.009.034-.004.013-.0083.025-.0123.034-.0081.02-.0128.025-.0091.02.0018-.003.0053-.008.0107-.014.0053-.007.0117-.014.0189-.021.0072-.007.0143-.014.0208-.019.0064-.005.0113-.009.0141-.011.0055-.003-.0004.001-.0196.009-.0095.005-.021.009-.0339.013-.013.004-.0249.007-.0344.009-.0045.001-.0077.001-.0093.001-.0017.001-.0011.001.0019 0 .0029 0 .0091-.001.0186-.001.0096-.001.0234-.001.0418-.001v-100c-55.22851 0-100 44.772-100 100H50Zm0 87.5c-.0184 0-.0322 0-.0417-.001-.0096 0-.0157-.001-.0187-.001-.003-.001-.0035-.001-.0019 0 .0016 0 .0048 0 .0093.001.0095.002.0214.005.0344.009.0129.004.0244.008.0339.013.0192.008.0251.012.0196.009-.0028-.002-.0077-.006-.0141-.011-.0065-.005-.0136-.012-.0208-.019-.0072-.007-.0136-.014-.0189-.021-.0054-.006-.0089-.011-.0107-.014-.0038-.005.001 0 .0091.02.004.009.0083.021.0123.034.0041.013.007.025.009.034.0009.004.0014.008.0017.009l-.0002-.002c-.0003-.003-.0009-.009-.0014-.018-.0004-.01-.0009-.024-.0009-.042H-50c0 55.229 44.77154 100 100 100v-100Zm145.275 69.537c-14.162-38.078-50.595-69.537-97.2213-69.537v100c.0019 0-.0033 0-.0137-.001s-.0212-.002-.0309-.004c-.0224-.004-.0188-.005.0166.007.0692.024.3355.129.7471.438.9.676 2.0512 2.01 2.7752 3.957l93.727-34.86Zm-10.511 139.767c32.957-32.958 36.492-80.954 19.571-117.899l-90.918 41.639c.861 1.879.989 3.628.831 4.736-.072.506-.185.767-.216.832-.017.033-.02.035-.007.016.006-.008.012-.017.019-.025.007-.008.01-.011.009-.01l70.711 70.711Zm-34.053 34.053c-.013-.013-.023-.023-.029-.03-.007-.007-.01-.012-.012-.015-.002-.002-.003-.002-.002-.001s.003.004.006.008c.005.008.011.018.018.03.006.012.011.024.015.033.008.019.009.027.007.02 0-.003-.001-.009-.002-.017-.001-.008-.001-.018-.001-.028 0-.01 0-.02.001-.028.001-.009.002-.015.002-.018.002-.006.001.001-.007.02-.004.01-.009.021-.015.033-.007.012-.013.023-.018.031-.003.004-.005.006-.006.008l.002-.002c.002-.002.005-.007.012-.014.006-.007.016-.017.029-.03l-70.7109-70.711C40.9477 755.449 40.9476 818.765 80 857.818l70.711-70.711Zm61.872 61.872c-.013.013-.024.022-.031.029-.007.006-.011.01-.014.012-.002.002-.003.002-.001.001.001-.001.004-.003.008-.005.008-.006.018-.012.03-.018.012-.007.023-.012.033-.016.019-.008.027-.008.02-.007-.003.001-.009.002-.017.002-.009.001-.018.002-.028.002-.011 0-.02-.001-.029-.002-.008 0-.014-.001-.017-.002-.007-.001.001-.001.02.007.01.004.021.009.033.016.012.006.022.012.031.018.003.002.006.004.007.005.002.001.001.001-.001-.001s-.007-.006-.014-.012c-.007-.007-.017-.016-.03-.029l-70.711 70.71c39.052 39.053 102.369 39.053 141.421 0l-70.71-70.71Zm151.944-53.461c-36.962-16.976-85.015-13.469-118.006 19.522l70.711 70.71c.002-.001-.002.003-.01.009-.008.007-.016.014-.025.019-.018.014-.017.01.016-.006.066-.032.327-.145.834-.217 1.11-.157 2.861-.027 4.742.837l41.738-90.874Zm91.723 106.428c0-46.626-31.459-83.059-69.537-97.221l-34.86 93.727c1.947.724 3.281 1.875 3.957 2.775.309.412.414.678.438.747.012.036.011.039.007.017-.002-.01-.003-.021-.004-.031-.001-.01-.001-.016-.001-.014h100Zm0 48.054c-.018 0-.032 0-.042-.001-.009 0-.015-.001-.018-.001-.003-.001-.004-.001-.002 0 .001 0 .005 0 .009.001.01.002.021.005.034.009.013.004.025.008.034.013.02.008.025.012.02.009-.003-.002-.008-.006-.014-.011-.007-.005-.014-.012-.021-.019-.007-.007-.014-.014-.019-.021-.005-.006-.009-.011-.011-.014-.003-.005.001 0 .009.02.005.009.009.021.013.034.004.013.007.025.009.034.001.004.001.008.001.009.001.002.001.001 0-.002 0-.003-.001-.009-.001-.018-.001-.01-.001-.024-.001-.042h-100c0 55.23 44.772 100 100 100V950Zm87.5 0c0 .018 0 .032-.001.042 0 .009-.001.015-.001.018-.001.003-.001.004 0 .002 0-.001 0-.005.001-.009.002-.009.005-.021.009-.034.004-.013.008-.025.013-.034.008-.02.012-.025.009-.02-.002.003-.006.008-.011.014-.005.007-.012.014-.019.021-.007.007-.014.014-.021.019-.006.005-.011.009-.014.011-.005.003 0-.001.02-.009.009-.005.021-.009.034-.013.013-.004.025-.007.034-.009.004-.001.008-.001.009-.001.002-.001.001-.001-.002 0-.003 0-.009.001-.018.001-.01.001-.024.001-.042.001v100c55.228 0 100-44.77 100-100h-100Zm69.536-145.275c-38.077 14.162-69.536 50.595-69.536 97.221h100c0-.002 0 .004-.001.014s-.002.021-.004.031c-.004.022-.005.019.007-.017.024-.069.129-.335.438-.747.676-.9 2.01-2.051 3.957-2.775l-34.861-93.727Zm139.98 10.413c-32.974-32.974-80.999-36.495-117.952-19.547l41.688 90.896c1.881-.862 3.63-.991 4.739-.834.507.072.768.186.833.217.034.016.035.02.016.007-.008-.006-.016-.013-.024-.019-.008-.007-.012-.011-.011-.009l70.711-70.711Zm33.841 33.841c-.013.013-.023.022-.03.029-.008.006-.012.01-.015.012l-.001.001c.001-.001.004-.003.008-.005.008-.006.018-.012.03-.018.012-.007.023-.012.033-.016.019-.008.027-.008.02-.007-.003.001-.009.002-.017.002-.009.001-.018.002-.028.002-.01 0-.02-.001-.028-.002-.009 0-.015-.001-.018-.002-.006-.001.001-.001.02.007.01.004.021.009.033.016.012.006.023.012.031.018.004.002.006.004.008.005.001.001 0 .001-.002-.001s-.007-.006-.014-.012c-.007-.007-.017-.016-.03-.029l-70.711 70.71c39.052 39.053 102.369 39.053 141.421 0l-70.71-70.71Zm61.872-61.872c.013.013.022.023.028.03.007.007.011.012.013.014.002.003.002.003.001.002-.001-.002-.003-.004-.005-.008-.006-.008-.012-.019-.019-.031-.006-.012-.011-.023-.015-.033-.008-.019-.008-.026-.007-.02.001.003.002.009.002.018.001.008.002.018.002.028 0 .01-.001.02-.002.028 0 .008-.001.014-.002.017-.001.007-.001-.001.007-.02.004-.009.009-.021.015-.033.007-.012.013-.022.019-.03.002-.004.004-.007.005-.008l-.001.001c-.002.003-.006.008-.013.015-.006.007-.015.017-.028.03l70.71 70.711c39.053-39.053 39.053-102.369 0-141.422l-70.71 70.711Zm-53.388-151.793c-16.948 36.953-13.427 84.978 19.547 117.952l70.711-70.71c-.002-.002.002.002.009.01.006.008.013.016.019.024.013.019.009.018-.007-.015-.031-.066-.145-.327-.217-.834-.157-1.109-.028-2.858.834-4.739l-90.896-41.688Zm106.355-91.564c-46.626 0-83.059 31.459-97.221 69.537l93.727 34.86c.724-1.947 1.875-3.281 2.775-3.957.412-.309.678-.414.747-.438.036-.012.039-.011.017-.007-.01.002-.021.003-.031.004-.01.001-.016.001-.014.001v-100Zm48.054 0c0 .018 0 .032-.001.042 0 .009-.001.015-.001.018-.001.003-.001.004 0 .002 0-.001 0-.005.001-.009.002-.009.005-.021.009-.034.004-.013.008-.025.013-.034.008-.02.012-.025.009-.02-.002.003-.006.008-.011.014-.005.007-.012.014-.019.021-.007.007-.014.014-.021.019-.006.005-.011.009-.014.011-.005.003 0-.001.02-.009.009-.005.021-.009.034-.013.013-.004.025-.007.034-.009.004-.001.008-.001.009-.001.002-.001.001-.001-.002 0-.003 0-.009.001-.018.001-.01.001-.024.001-.042.001v100c55.23 0 100-44.772 100-100H950Zm0-87.5c.018 0 .032 0 .042.001.009 0 .015.001.018.001.003.001.004.001.002 0-.001 0-.005 0-.009-.001-.009-.002-.021-.005-.034-.009-.013-.004-.025-.008-.034-.013-.02-.008-.025-.012-.02-.009.003.002.008.006.014.011.007.005.014.012.021.019.007.007.014.014.019.021.005.006.009.011.011.014.003.005-.001 0-.009-.02-.005-.009-.009-.021-.013-.034-.004-.013-.007-.024-.009-.034-.001-.005-.001-.008-.001-.009-.001-.002-.001-.001 0 .002 0 .003.001.009.001.018.001.01.001.024.001.042h100c0-55.228-44.77-100-100-100v100Zm-145.275-69.537c14.162 38.078 50.595 69.537 97.221 69.537v-100c-.002 0 .004 0 .014.001s.021.002.031.004c.022.004.019.005-.017-.007-.069-.024-.335-.129-.747-.438-.9-.676-2.051-2.01-2.775-3.957l-93.727 34.86Zm10.315-140.192c-32.991 32.991-36.498 81.044-19.522 118.006l90.874-41.738c-.864-1.881-.994-3.632-.837-4.742.072-.507.185-.768.217-.834.016-.033.02-.034.006-.016-.005.009-.012.017-.019.025-.006.008-.01.012-.009.01l-70.71-70.711Zm33.939-33.938c.013.013.022.023.029.03.006.007.01.012.012.014s.002.003.001.001c-.001-.001-.003-.004-.005-.007-.006-.009-.012-.019-.018-.031-.007-.012-.012-.023-.016-.033-.007-.019-.008-.027-.007-.02.001.003.002.009.002.017.001.009.002.018.002.029 0 .01-.001.019-.002.028 0 .008-.001.014-.002.017-.001.007 0-.001.007-.02.004-.01.009-.021.016-.033.006-.012.012-.022.018-.03.002-.004.004-.007.005-.008.001-.002.001-.001-.001.001s-.006.007-.012.014c-.007.007-.016.018-.029.031l70.71 70.71c39.053-39.052 39.053-102.369 0-141.421l-70.71 70.711Zm-61.872-61.872c.013-.013.023-.023.03-.029.007-.007.012-.011.014-.012.003-.002.003-.003.002-.002-.002.001-.004.003-.008.006-.008.005-.019.011-.031.018-.012.006-.023.011-.033.015-.019.008-.026.009-.02.007.004 0 .009-.001.018-.002.008-.001.018-.001.028-.001.01 0 .02 0 .028.001s.014.002.017.002c.007.002 0 .001-.02-.007-.009-.004-.021-.009-.032-.015-.013-.007-.023-.013-.031-.018-.004-.003-.007-.005-.008-.006s-.001 0 .002.002c.002.001.007.005.014.012.007.006.017.016.03.029L857.818 80c-39.053-39.0524-102.369-39.0524-141.422 0l70.711 70.711Zm-151.952 53.624c36.945 16.921 84.941 13.386 117.899-19.571l-70.711-70.711c-.001.001.002-.002.01-.009.008-.007.017-.013.025-.019.019-.013.017-.01-.016.007-.065.031-.326.144-.832.216-1.108.158-2.857.03-4.736-.831l-41.639 90.918ZM543.75 98.0536c0 46.6264 31.459 83.0594 69.536 97.2214l34.861-93.727c-1.947-.724-3.281-1.8752-3.957-2.7752-.309-.4116-.414-.6779-.438-.7471-.012-.0354-.011-.039-.007-.0166.002.0097.003.0205.004.0309s.001.0156.001.0136h-100ZM456.25-50c-55.228 0-100 44.77154-100 100h100c0-.0184 0-.0322.001-.0417 0-.0096.001-.0157.001-.0187.001-.003.001-.0035 0-.0019 0 .0016 0 .0048-.001.0093-.002.0095-.005.0214-.009.0344-.004.0129-.008.0244-.013.0339-.008.0192-.012.0251-.009.0196.002-.0028.006-.0077.011-.0141.005-.0065.012-.0136.019-.0208.007-.0072.014-.0136.021-.0189.006-.0054.011-.0089.014-.0107.005-.0038 0 .001-.02.0091-.009.004-.021.0083-.034.0123-.013.0041-.024.007-.034.009-.004.0009-.008.0014-.009.0017l.002-.0002c.003-.0003.009-.0009.018-.0014.01-.0004.024-.0009.042-.0009V-50Zm87.5 100c.018 0 .032.0005.042.0009.009.0005.015.0011.018.0014l.002.0002c-.001-.0003-.005-.0008-.009-.0017-.009-.002-.021-.0049-.034-.009-.013-.004-.025-.0083-.034-.0123-.019-.0081-.025-.0128-.02-.0091.003.0018.008.0053.014.0107.007.0053.014.0117.021.0189.007.0072.014.0143.019.0208.005.0064.009.0113.011.0141.003.0055-.001-.0004-.009-.0196-.005-.0095-.009-.021-.013-.0339-.004-.013-.007-.0249-.009-.0344-.001-.0045-.001-.0077-.001-.0093-.001-.0017-.001-.0011 0 .0019 0 .0029.001.0091.001.0186.001.0096.001.0234.001.0418h100c0-55.22851-44.772-100-100-100V50Z" fill="#fff" mask="url(#path-1-inside-1_5_46)"/><circle cx="500" cy="500" r="275" stroke="#fff" stroke-width="50"/><path d="M428.6 662.9c-15.9 0-23.85-4.35-23.85-13.05v-286.2c0-11.1 5.4-16.65 16.2-16.65h93.6c9.6 0 20.4 1.2 32.4 3.6 12.3 2.1 23.85 6.45 34.65 13.05 11.1 6.3 20.1 15.75 27 28.35 6.9 12.6 10.35 29.25 10.35 49.95 0 17.1-2.7 31.5-8.1 43.2-5.1 11.4-11.85 20.7-20.25 27.9-8.1 6.9-16.8 12.3-26.1 16.2-9.3 3.6-18 6.15-26.1 7.65-8.1 1.2-14.55 1.8-19.35 1.8H463.7v111.15c0 8.7-7.95 13.05-23.85 13.05H428.6Zm35.1-175.05h50.4c4.2 0 8.85-.6 13.95-1.8 5.4-1.2 10.35-3.45 14.85-6.75s8.25-7.95 11.25-13.95c3-6 4.5-13.8 4.5-23.4 0-12.3-2.55-21.6-7.65-27.9-5.1-6.3-11.25-10.65-18.45-13.05-6.9-2.4-13.8-3.6-20.7-3.6H463.7v90.45Z" fill="#fff"/></g><defs><clipPath id="clip0_5_46"><path fill="#fff" d="M0 0h1000v1000H0z"/></clipPath></defs></svg>